<?xml version="1.0" encoding="UTF-8"?>
<svg xmlns="http://www.w3.org/2000/svg" viewBox="620 320 450 380">
  <path fill="#ffffff" d="M962.8,574.9c-1.8-3.9-3.8-7.7-5.9-11.5-14.9-27.9-29.8-55.7-44.7-83.6-15.8-29.7-31.6-59.4-47.4-89.1-1.5-2.9-3-5.9-5-8.5-3.5-4.9-9.7-4.9-13.4-.3-2.4,3-2.6,6.2-.9,9.5,1.3,2.5.9,4.4-1.2,6.2-2.7,2.4-5.3,4.9-7.9,7.3-14.4,13.7-28.7,27.5-43.1,41.3-20,19.2-40,38.3-60,57.4-21.5,20.5-43.1,41.1-64.6,61.6-6.8,6.5-13.6,13.1-20.4,19.6-2.7,2.6-3.5,2.5-5.7-.7-.3-.4-.5-.9-.9-1.3-2-2.5-6.4-3.5-9.9-2.3-2.8,1-5.2,3.9-5,7.1.2,2.6,1.1,5.2,2.2,7.5,1,2.2.9,3.6-1.1,5.2-9.4,7.5-12.7,19.9-8.4,30.1,5.1,12.1,15.8,18.8,28.5,16.4,5.7-1.1,8.9-.4,11.4,5,1.6,3.4,6.1,4.3,10.1,3,3.4-1.2,5.4-4.1,5.1-8.2,0-1.5-.5-3-1-4.4-.8-2.1,0-3.4,2-4,.9-.3,1.8-.5,2.7-.7,16.6-3.7,33.3-7.3,49.9-11.1,2.9-.7,4.6.1,5.8,2.8,5.2,11.3,10.7,22.4,15.9,33.7,4.7,10,12.3,15.3,23.6,15.6,2.7-.6,5.5-.7,8-1.8,9.2-4,18.4-8.2,27.5-12.4,17.5-8.1,35-16.2,52.4-24.5,8.9-4.2,15.1-10.8,16.5-21.1,1-7.3-1.7-13.7-5-19.9-1.7-3.2-1.4-3.9,2-4.6,22.1-4.9,44.3-9.8,66.4-14.8,2.7-.6,4.5.2,5.9,2.6.8,1.4,1.9,2.7,3.2,3.5,3.3,2,7.5,1.6,10.1-.7,2.7-2.3,3.7-6.5,2.1-10.1ZM845.6,618.6c-6.9,3.2-13.7,6.4-20.6,9.6-15,7-30.1,14.1-45.1,21.1-4,1.9-6.6,1.2-8.6-2.9-3.8-7.9-7.5-15.9-11.4-23.9-1.2-2.5.3-3.1,2.2-3.5,9-2,18-4.1,27-6.1,16.5-3.7,33-7.3,49.6-10.9,6.6-1.4,6.6-1.4,9.5,4.8.9,1.9,1.6,4,2.1,5.4-.2,3.7-2.3,5.1-4.7,6.2Z"/>
  <path fill="#a3001d" d="M671.1,598.4c54.3-42.1,108.5-83.9,162.6-125.8-3.8-8.6-7.4-16.9-11.1-25.5-51.5,49.6-102.7,98.8-153.9,148,.9,1.2,1.6,2.2,2.4,3.3Z"/>
  <g>
    <path fill="#a3001d" d="M921.2,340l-34.9,46.2c-2.7,3.6-2,8.6,1.6,11.3,3.6,2.7,8.6,2,11.3-1.6l34.9-46.2c2.7-3.6,2-8.6-1.6-11.3-3.6-2.7-8.6-2-11.3,1.6Z"/>
    <path fill="#a3001d" d="M959.6,381.4l-43.6,38.1c-3.3,2.9-3.7,8-.7,11.4,2.9,3.3,8,3.7,11.4.7l43.6-38.1c3.3-2.9,3.7-8,.7-11.4-2.9-3.3-8-3.7-11.4-.7Z"/>
    <path fill="#a3001d" d="M992.3,429.6l-51.1,27.2c-3.9,2.1-5.4,7-3.3,10.9,2.1,3.9,7,5.4,10.9,3.3l51.1-27.2c3.9-2.1,5.4-7,3.3-10.9-2.1-3.9-7-5.4-10.9-3.3Z"/>
    <path fill="#a3001d" d="M1016.9,481l-55.8,15.5c-4.3,1.2-6.8,5.7-5.6,10,1.2,4.3,5.7,6.8,10,5.6l55.8-15.5c4.3-1.2,6.8-5.7,5.6-10-1.2-4.3-5.7-6.8-10-5.6Z"/>
    <path fill="#a3001d" d="M1033.5,535.7l-57.8,3.5c-4.4.3-7.8,4.1-7.6,8.6.3,4.4,4.1,7.8,8.6,7.6l57.8-3.5c4.4-.3,7.8-4.1,7.5-8.6-.3-4.4-4.1-7.8-8.6-7.5Z"/>
  </g>
</svg>
