<svg xmlns="http://www.w3.org/2000/svg" viewBox="0 0 512 512" fill="#34E0A1">
  <path d="M256 32C132.3 32 32 132.3 32 256s100.3 224 224 224 224-100.3 224-224S379.7 32 256 32zm0 400c-97 0-176-79-176-176S159 80 256 80s176 79 176 176-79 176-176 176z"/>
  <circle cx="192" cy="272" r="48" fill="#000"/>
  <circle cx="192" cy="272" r="24" fill="#fff"/>
  <circle cx="320" cy="272" r="48" fill="#000"/>
  <circle cx="320" cy="272" r="24" fill="#fff"/>
  <path d="M256 176c-55 0-104 25-136 64h32c26-28 63-44 104-44s78 16 104 44h32c-32-39-81-64-136-64z" fill="#000"/>
  <path d="M256 352c20 0 38-8 52-20l-52-32-52 32c14 12 32 20 52 20z" fill="#F00"/>
</svg>
